<svg width="24" height="25" viewBox="0 0 24 25" fill="none" xmlns="http://www.w3.org/2000/svg">
<path fill-rule="evenodd" clip-rule="evenodd" d="M8.161 3.07999C8.42148 2.94966 8.70874 2.88181 9 2.88181C9.29126 2.88181 9.57852 2.94966 9.839 3.07999L14.832 5.57799C14.938 5.62999 15.062 5.62999 15.168 5.57799L19.037 3.64299C19.3228 3.50018 19.6404 3.43279 19.9596 3.44722C20.2788 3.46164 20.5891 3.5574 20.8609 3.72541C21.1327 3.89341 21.357 4.12809 21.5126 4.40717C21.6682 4.68625 21.7499 5.00046 21.75 5.31999V17.805C21.75 18.515 21.349 19.165 20.713 19.482L15.838 21.919C15.5778 22.049 15.2909 22.1167 15 22.1167C14.7091 22.1167 14.4222 22.049 14.162 21.919L9.168 19.422C9.11585 19.3959 9.05833 19.3823 9 19.3823C8.94167 19.3823 8.88415 19.3959 8.832 19.422L4.964 21.357C4.67812 21.5 4.36042 21.5676 4.04107 21.5533C3.72173 21.539 3.41134 21.4433 3.1394 21.2752C2.86746 21.1072 2.643 20.8724 2.48733 20.5932C2.33167 20.314 2.24997 19.9997 2.25 19.68V7.19499C2.25 6.48499 2.651 5.83499 3.286 5.51799L8.161 3.08099V3.07999ZM9 6.49999C9.19891 6.49999 9.38968 6.57901 9.53033 6.71966C9.67098 6.86031 9.75 7.05108 9.75 7.24999V15.5C9.75 15.6989 9.67098 15.8897 9.53033 16.0303C9.38968 16.171 9.19891 16.25 9 16.25C8.80109 16.25 8.61032 16.171 8.46967 16.0303C8.32902 15.8897 8.25 15.6989 8.25 15.5V7.24999C8.25 7.05108 8.32902 6.86031 8.46967 6.71966C8.61032 6.57901 8.80109 6.49999 9 6.49999ZM15.75 9.49999C15.75 9.30108 15.671 9.11031 15.5303 8.96966C15.3897 8.82901 15.1989 8.74999 15 8.74999C14.8011 8.74999 14.6103 8.82901 14.4697 8.96966C14.329 9.11031 14.25 9.30108 14.25 9.49999V17.75C14.25 17.9489 14.329 18.1397 14.4697 18.2803C14.6103 18.421 14.8011 18.5 15 18.5C15.1989 18.5 15.3897 18.421 15.5303 18.2803C15.671 18.1397 15.75 17.9489 15.75 17.75V9.49999Z" fill="black"/>
</svg>
