<svg width="24" height="25" viewBox="0 0 24 25" fill="none" xmlns="http://www.w3.org/2000/svg">
<path d="M4.5 4.25C3.70435 4.25 2.94129 4.56607 2.37868 5.12868C1.81607 5.69129 1.5 6.45435 1.5 7.25V8H22.5V7.25C22.5 6.45435 22.1839 5.69129 21.6213 5.12868C21.0587 4.56607 20.2956 4.25 19.5 4.25H4.5Z" fill="black"/>
<path fill-rule="evenodd" clip-rule="evenodd" d="M22.5 10.25H1.5V17.75C1.5 18.5456 1.81607 19.3087 2.37868 19.8713C2.94129 20.4339 3.70435 20.75 4.5 20.75H19.5C20.2956 20.75 21.0587 20.4339 21.6213 19.8713C22.1839 19.3087 22.5 18.5456 22.5 17.75V10.25ZM4.5 14C4.5 13.8011 4.57902 13.6103 4.71967 13.4697C4.86032 13.329 5.05109 13.25 5.25 13.25H11.25C11.4489 13.25 11.6397 13.329 11.7803 13.4697C11.921 13.6103 12 13.8011 12 14C12 14.1989 11.921 14.3897 11.7803 14.5303C11.6397 14.671 11.4489 14.75 11.25 14.75H5.25C5.05109 14.75 4.86032 14.671 4.71967 14.5303C4.57902 14.3897 4.5 14.1989 4.5 14ZM5.25 16.25C5.05109 16.25 4.86032 16.329 4.71967 16.4697C4.57902 16.6103 4.5 16.8011 4.5 17C4.5 17.1989 4.57902 17.3897 4.71967 17.5303C4.86032 17.671 5.05109 17.75 5.25 17.75H8.25C8.44891 17.75 8.63968 17.671 8.78033 17.5303C8.92098 17.3897 9 17.1989 9 17C9 16.8011 8.92098 16.6103 8.78033 16.4697C8.63968 16.329 8.44891 16.25 8.25 16.25H5.25Z" fill="black"/>
</svg>
