<svg width="24" height="25" viewBox="0 0 24 25" fill="none" xmlns="http://www.w3.org/2000/svg">
<path fill-rule="evenodd" clip-rule="evenodd" d="M12 2.75C6.615 2.75 2.25 7.115 2.25 12.5C2.25 17.885 6.615 22.25 12 22.25C17.385 22.25 21.75 17.885 21.75 12.5C21.75 7.115 17.385 2.75 12 2.75ZM9.624 7.584C9.51266 7.4209 9.34148 7.30829 9.14762 7.27063C8.95376 7.23296 8.75287 7.27328 8.58855 7.38282C8.42423 7.49237 8.30975 7.6623 8.26996 7.85573C8.23016 8.04917 8.26827 8.25049 8.376 8.416L10.599 11.75H9C8.80109 11.75 8.61032 11.829 8.46967 11.9697C8.32902 12.1103 8.25 12.3011 8.25 12.5C8.25 12.6989 8.32902 12.8897 8.46967 13.0303C8.61032 13.171 8.80109 13.25 9 13.25H11.25V14.75H9C8.80109 14.75 8.61032 14.829 8.46967 14.9697C8.32902 15.1103 8.25 15.3011 8.25 15.5C8.25 15.6989 8.32902 15.8897 8.46967 16.0303C8.61032 16.171 8.80109 16.25 9 16.25H11.25V17.75C11.25 17.9489 11.329 18.1397 11.4697 18.2803C11.6103 18.421 11.8011 18.5 12 18.5C12.1989 18.5 12.3897 18.421 12.5303 18.2803C12.671 18.1397 12.75 17.9489 12.75 17.75V16.25H15C15.1989 16.25 15.3897 16.171 15.5303 16.0303C15.671 15.8897 15.75 15.6989 15.75 15.5C15.75 15.3011 15.671 15.1103 15.5303 14.9697C15.3897 14.829 15.1989 14.75 15 14.75H12.75V13.25H15C15.1989 13.25 15.3897 13.171 15.5303 13.0303C15.671 12.8897 15.75 12.6989 15.75 12.5C15.75 12.3011 15.671 12.1103 15.5303 11.9697C15.3897 11.829 15.1989 11.75 15 11.75H13.401L15.624 8.416C15.6799 8.33408 15.719 8.24189 15.7391 8.14475C15.7591 8.04761 15.7597 7.94746 15.7408 7.8501C15.7219 7.75273 15.6838 7.66009 15.6289 7.57752C15.5739 7.49496 15.5031 7.42412 15.4206 7.3691C15.3381 7.31408 15.2455 7.27598 15.1481 7.257C15.0507 7.23802 14.9506 7.23854 14.8534 7.25852C14.7563 7.27851 14.6641 7.31757 14.5821 7.37344C14.5002 7.4293 14.4301 7.50087 14.376 7.584L12 11.148L9.624 7.584Z" fill="black"/>
</svg>
