<svg width="24" height="25" viewBox="0 0 24 25" fill="none" xmlns="http://www.w3.org/2000/svg">
<path fill-rule="evenodd" clip-rule="evenodd" d="M7.49997 6.5C7.49997 5.30653 7.97408 4.16193 8.81799 3.31802C9.66191 2.47411 10.8065 2 12 2C13.1934 2 14.338 2.47411 15.182 3.31802C16.0259 4.16193 16.5 5.30653 16.5 6.5C16.5 7.69347 16.0259 8.83807 15.182 9.68198C14.338 10.5259 13.1934 11 12 11C10.8065 11 9.66191 10.5259 8.81799 9.68198C7.97408 8.83807 7.49997 7.69347 7.49997 6.5ZM3.75097 20.605C3.78469 18.4395 4.66862 16.3741 6.21193 14.8546C7.75525 13.3351 9.83419 12.4834 12 12.4834C14.1658 12.4834 16.2447 13.3351 17.788 14.8546C19.3313 16.3741 20.2153 18.4395 20.249 20.605C20.2516 20.7508 20.2116 20.8942 20.134 21.0176C20.0564 21.141 19.9445 21.2392 19.812 21.3C17.3611 22.4237 14.6961 23.0037 12 23C9.21397 23 6.56697 22.392 4.18797 21.3C4.05546 21.2392 3.94355 21.141 3.86594 21.0176C3.78832 20.8942 3.74837 20.7508 3.75097 20.605Z" fill="black"/>
</svg>
