<svg width="24" height="25" viewBox="0 0 24 25" fill="none" xmlns="http://www.w3.org/2000/svg">
<path fill-rule="evenodd" clip-rule="evenodd" d="M12 7.25C11.9998 6.43 12.1917 5.62135 12.5603 4.88885C12.9288 4.15635 13.4639 3.52038 14.1225 3.03188C14.7811 2.54339 15.545 2.21596 16.3529 2.07584C17.1609 1.93572 17.9904 1.98681 18.775 2.225C18.8991 2.26257 19.0112 2.33163 19.1006 2.42544C19.19 2.51926 19.2535 2.63464 19.2851 2.76033C19.3166 2.88602 19.315 3.01773 19.2805 3.14263C19.2459 3.26753 19.1796 3.38135 19.088 3.473L15.768 6.792C15.831 7.267 16.044 7.726 16.409 8.091C16.774 8.456 17.233 8.669 17.709 8.731L21.027 5.412C21.1187 5.32039 21.2325 5.25409 21.3574 5.21956C21.4823 5.18503 21.614 5.18345 21.7397 5.21497C21.8654 5.2465 21.9808 5.31005 22.0746 5.39943C22.1684 5.48881 22.2375 5.60098 22.275 5.725C22.5243 6.54585 22.5685 7.41527 22.404 8.25719C22.2394 9.09912 21.8711 9.88789 21.3312 10.5545C20.7912 11.2211 20.0962 11.7453 19.3068 12.0811C18.5174 12.417 17.6578 12.5543 16.803 12.481C15.785 12.395 14.933 12.581 14.494 13.115L7.34404 21.8C7.05128 22.1538 6.68787 22.4425 6.27708 22.6477C5.86629 22.8529 5.41718 22.9701 4.9585 22.9917C4.49982 23.0133 4.04168 22.9389 3.61341 22.7732C3.18515 22.6076 2.79619 22.3543 2.47146 22.0296C2.14673 21.705 1.89337 21.3161 1.72762 20.8878C1.56186 20.4596 1.48735 20.0015 1.50887 19.5428C1.53039 19.0841 1.64745 18.635 1.85257 18.2241C2.05769 17.8133 2.34634 17.4498 2.70004 17.157L11.384 10.006C11.917 9.56599 12.104 8.715 12.018 7.697C12.0058 7.54831 11.9998 7.39918 12 7.25ZM4.11704 19.625C4.11704 19.4261 4.19606 19.2353 4.33671 19.0947C4.47736 18.954 4.66813 18.875 4.86704 18.875H4.87504C5.07395 18.875 5.26472 18.954 5.40537 19.0947C5.54602 19.2353 5.62504 19.4261 5.62504 19.625V19.633C5.62504 19.8319 5.54602 20.0227 5.40537 20.1633C5.26472 20.304 5.07395 20.383 4.87504 20.383H4.86704C4.66813 20.383 4.47736 20.304 4.33671 20.1633C4.19606 20.0227 4.11704 19.8319 4.11704 19.633V19.625Z" fill="black"/>
<path d="M10.076 9.13999L7.87497 6.93999V5.37399C7.87496 5.24451 7.84143 5.11724 7.77765 5.00456C7.71386 4.89188 7.62199 4.79763 7.51097 4.73099L3.76097 2.48099C3.61754 2.39502 3.4495 2.35944 3.28353 2.37991C3.11757 2.40039 2.9632 2.47574 2.84497 2.59399L2.09497 3.34399C1.97671 3.46223 1.90136 3.61659 1.88089 3.78255C1.86041 3.94852 1.89599 4.11657 1.98197 4.25999L4.23197 8.00999C4.29861 8.12101 4.39286 8.21288 4.50554 8.27667C4.61822 8.34046 4.74549 8.37399 4.87497 8.37399H6.43897L8.50097 10.436L10.076 9.13899V9.13999Z" fill="black"/>
<path fill-rule="evenodd" clip-rule="evenodd" d="M12.556 17.829L16.739 22.011C17.0524 22.3244 17.4245 22.573 17.834 22.7426C18.2434 22.9122 18.6823 22.9995 19.1255 22.9995C19.5687 22.9995 20.0076 22.9122 20.4171 22.7426C20.8266 22.573 21.1986 22.3244 21.512 22.011C21.8254 21.6976 22.074 21.3255 22.2436 20.9161C22.4133 20.5066 22.5006 20.0677 22.5006 19.6245C22.5006 19.1813 22.4133 18.7424 22.2436 18.3329C22.074 17.9235 21.8254 17.5514 21.512 17.238L18.206 13.933C17.6993 14.0048 17.186 14.0193 16.676 13.976C16.282 13.942 15.994 13.97 15.809 14.018C15.7505 14.0304 15.6942 14.0516 15.642 14.081L12.556 17.829ZM15.97 16.469C16.1107 16.3285 16.3013 16.2497 16.5 16.2497C16.6988 16.2497 16.8894 16.3285 17.03 16.469L18.905 18.345C18.9787 18.4137 19.0378 18.4965 19.0788 18.5885C19.1198 18.6805 19.1418 18.7798 19.1436 18.8805C19.1454 18.9812 19.1269 19.0812 19.0892 19.1746C19.0514 19.268 18.9953 19.3528 18.9241 19.424C18.8528 19.4953 18.768 19.5514 18.6746 19.5891C18.5812 19.6268 18.4812 19.6454 18.3805 19.6436C18.2798 19.6418 18.1805 19.6198 18.0885 19.5788C17.9965 19.5378 17.9137 19.4787 17.845 19.405L15.97 17.53C15.8296 17.3894 15.7507 17.1987 15.7507 17C15.7507 16.8012 15.8296 16.6106 15.97 16.47V16.469Z" fill="black"/>
</svg>
